<svg width="160" height="160" viewBox="0 0 160 160" fill="none" xmlns="http://www.w3.org/2000/svg">
<circle cx="80" cy="80" r="77.5" fill="white" stroke="black" stroke-width="5"/>
<path fill-rule="evenodd" clip-rule="evenodd" d="M76.0304 78.35C76.0103 78.2364 75.9999 78.1194 75.9999 78V14C75.9999 12.8954 76.8953 12 77.9999 12C79.1044 12 79.9999 12.8954 79.9999 14V78C79.9999 78.5221 79.7998 78.9975 79.4721 79.3537C79.9404 80.2369 79.8492 81.3538 79.1575 82.157L51.4202 114.368C50.5192 115.414 48.9407 115.532 47.8944 114.631C46.8482 113.73 46.7304 112.152 47.6313 111.106L75.3687 78.8944C75.562 78.6699 75.7866 78.4881 76.0304 78.35ZM32.4995 142.323C33.3278 143.054 33.4068 144.318 32.676 145.146L20.3225 159.147C19.5916 159.975 18.3278 160.054 17.4995 159.323C16.6713 158.592 16.5923 157.329 17.3231 156.5L29.6766 142.5C30.4074 141.671 31.6713 141.592 32.4995 142.323ZM131.45 140.555C130.86 139.621 129.625 139.342 128.691 139.932C127.757 140.522 127.478 141.757 128.068 142.691L137.932 158.309C138.522 159.243 139.757 159.522 140.691 158.932C141.625 158.342 141.904 157.107 141.314 156.173L131.45 140.555Z" fill="black"/>
</svg>
